HIERARCHY
ROOT Hips
{
	OFFSET -0.179506 -22.333345 2.821913
	CHANNELS 6 Xposition Yposition Zposition Zrotation Yrotation Xrotation 
	JOINT LeftUpLeg
	{
		OFFSET 6.951974 -9.140623 -0.681533
		CHANNELS 3 Zrotation Yrotation Xrotation
		JOINT LeftLeg
		{
			OFFSET 3.427654 -37.519855 -0.449580
			CHANNELS 3 Zrotation Yrotation Xrotation
			JOINT LeftFoot
			{
				OFFSET -1.359570 -39.796059 -4.369333
				CHANNELS 3 Zrotation Yrotation Xrotation
				JOINT LeftToe
				{
					OFFSET 2.635814 -5.579078 11.928840
					CHANNELS 3 Zrotation Yrotation Xrotation
					End Site
					{
						OFFSET 0.000000 0.000000 0.000000
					}
				}
			}
		}
	}
	JOINT RightUpLeg
	{
		OFFSET -6.767048 -9.052170 -0.431982
		CHANNELS 3 Zrotation Yrotation Xrotation
		JOINT RightLeg
		{
			OFFSET -3.829005 -38.256897 -0.885003
			CHANNELS 3 Zrotation Yrotation Xrotation
			JOINT RightFoot
			{
				OFFSET 1.577377 -39.841461 -4.231180
				CHANNELS 3 Zrotation Yrotation Xrotation
				JOINT RightToe
				{
					OFFSET -2.537174 -4.814398 12.334795
					CHANNELS 3 Zrotation Yrotation Xrotation
					End Site
					{
						OFFSET 0.000000 0.000000 0.000000
					}
				}
			}
		}
	}
	JOINT Spine
	{
		OFFSET -0.253288 10.896323 -2.669631
		CHANNELS 3 Zrotation Yrotation Xrotation
		JOINT Spine1
		{
			OFFSET 0.548704 13.518043 0.109247
			CHANNELS 3 Zrotation Yrotation Xrotation
			JOINT Spine2
			{
				OFFSET 0.145701 5.292222 2.542457
				CHANNELS 3 Zrotation Yrotation Xrotation
				JOINT Neck
				{
					OFFSET -0.277840 21.387037 -4.285703
					CHANNELS 3 Zrotation Yrotation Xrotation
					JOINT Head
					{
						OFFSET 0.515184 6.496960 5.134897
						CHANNELS 3 Zrotation Yrotation Xrotation
						End Site
						{
							OFFSET 0.000000 0.000000 0.000000
						}
					}
				}
				JOINT LeftShoulder
				{
					OFFSET 7.884473 12.174932 -3.408961
					CHANNELS 3 Zrotation Yrotation Xrotation
					JOINT LeftArm
					{
						OFFSET 9.097692 3.046888 -0.886815
						CHANNELS 3 Zrotation Yrotation Xrotation
						JOINT LeftForeArm
						{
							OFFSET 25.961220 -1.277207 -2.745643
							CHANNELS 3 Zrotation Yrotation Xrotation
							JOINT LeftHand
							{
								OFFSET 24.923361 0.898606 -0.117091
								CHANNELS 3 Zrotation Yrotation Xrotation
								End Site
								{
									OFFSET 0.000000 0.000000 0.000000
								}
							}
						}
					}
				}
				JOINT RightShoulder
				{
					OFFSET -8.175920 11.883285 -3.861528
					CHANNELS 3 Zrotation Yrotation Xrotation
					JOINT RightArm
					{
						OFFSET -9.601238 3.255117 -0.914307
						CHANNELS 3 Zrotation Yrotation Xrotation
						JOINT RightForeArm
						{
							OFFSET -25.374195 -1.332924 -2.140099
							CHANNELS 3 Zrotation Yrotation Xrotation
							JOINT RightHand
							{
								OFFSET -25.529810 0.777228 -0.555919
								CHANNELS 3 Zrotation Yrotation Xrotation
								End Site
								{
									OFFSET 0.000000 0.000000 0.000000
								}
							}
						}
					}
				}
			}
		}
	}
}
MOTION
Frames: 18
Frame Time: 0.033333
-34.293777 16.247484 68.785378 179.245196 0.215722 101.866162 16.144996 41.270330 -59.982400 -15.620913 27.443382 86.656996 12.334094 -17.510124 -31.860331 nan nan nan -6.075338 -38.919207 -59.802654 -0.389689 -28.678792 95.899826 -7.470145 17.590268 -32.997213 nan nan nan 5.965586 1.972418 56.175799 2.768762 -3.451098 -12.161678 5.335296 -0.138194 -3.801317 -9.311184 4.672024 -4.476076 5.390202 -4.544856 -0.949298 -4.680830 -42.041875 -9.130297 -45.436704 -33.360739 3.058225 -2.400354 -18.052653 28.917935 1.788955 -2.396760 -10.427915 8.375860 37.747155 0.142716 43.507915 38.791902 -3.912581 1.391979 11.189198 35.586595 -0.395633 -7.328317 23.375371 
-34.385033 16.209501 68.015594 179.106880 0.329366 101.685785 16.344594 41.635521 -60.607631 -15.149750 27.558233 88.413084 12.685314 -17.525698 -32.830375 nan nan nan -6.154787 -39.166137 -60.420496 -0.702499 -28.516220 97.494664 -7.485840 17.844996 -33.518790 nan nan nan 5.895941 2.032425 56.687525 2.834030 -3.442822 -12.151928 5.363799 -0.075762 -3.825861 -9.176703 4.994658 -4.454937 5.289242 -4.684926 -1.045270 -4.652094 -42.068352 -8.991091 -45.074345 -33.279537 2.778117 -2.418862 -18.217837 29.441109 2.552628 -3.084870 -10.554757 8.297118 37.822905 0.147249 43.225065 39.059169 -4.614510 1.086900 11.167677 34.548828 -1.028475 -6.290217 22.580541 
-34.484127 16.188549 67.259872 179.011787 0.473861 101.379823 16.625771 42.023814 -61.124948 -14.823358 27.622043 90.147205 12.899306 -17.491840 -33.667722 nan nan nan -6.378812 -39.229412 -60.745756 -0.991158 -28.400632 98.966130 -7.937395 17.858002 -34.375835 nan nan nan 5.767901 2.003083 57.281070 2.880152 -3.370293 -12.003333 5.467270 0.075820 -3.885232 -9.271590 5.140432 -4.441443 5.321014 -4.712960 -1.139879 -4.703350 -42.314793 -9.016223 -44.611639 -32.916714 2.486324 -2.646606 -18.200632 30.367463 3.350415 -3.426563 -8.866181 8.454727 38.202635 0.228292 42.405658 39.090383 -5.544182 1.584464 10.657817 35.250531 -0.317012 -6.468508 24.271944 
-34.564289 16.123287 66.513359 178.881109 0.665593 101.158126 16.905126 42.372975 -61.827219 -14.481993 27.712154 91.827311 13.160853 -17.367844 -34.251577 nan nan nan -6.215248 -39.423908 -61.392670 -1.051702 -28.225328 100.290194 -8.664533 17.600019 -35.087277 nan nan nan 5.834019 1.999168 57.801601 2.826737 -3.381087 -11.749621 5.491497 0.146074 -4.025839 -9.503717 5.032113 -4.398878 5.618293 -4.561466 -1.415736 -4.709633 -42.528277 -9.207696 -44.109981 -32.926668 1.780100 -2.999345 -18.112979 29.140046 2.845213 -2.053236 -9.827941 8.424974 38.415002 0.289627 41.991741 39.093993 -5.918271 1.550584 10.859266 35.339779 -1.202234 -7.382968 25.268214 
-34.635983 16.048189 65.742554 178.778178 0.750544 100.897247 17.158743 42.567513 -62.519111 -14.046645 27.824666 93.537607 13.391864 -17.245628 -34.738889 nan nan nan -6.286064 -39.494721 -61.980789 -1.204776 -28.063374 101.690287 -9.134067 17.259493 -35.757254 nan nan nan 5.798835 1.961667 58.091420 2.847407 -3.556167 -11.098654 5.369780 0.285348 -4.206765 -9.444747 4.984977 -4.544812 5.762986 -4.476272 -1.638136 -4.416704 -42.555074 -9.601276 -43.696420 -32.763157 1.607934 -3.393289 -18.219510 28.587624 3.027376 -1.168053 -10.760380 8.470073 38.755553 0.284374 41.556322 39.190045 -6.079743 1.458811 10.929259 35.063769 -1.788639 -7.948922 25.930554 
-34.721954 15.988765 64.971840 178.710513 0.777732 100.792883 17.141802 42.735633 -63.497093 -13.601926 27.880475 95.236060 13.545302 -17.106378 -35.129055 nan nan nan -6.262871 -39.633569 -62.821661 -1.373631 -27.838053 103.084361 -9.363883 17.033946 -36.297279 nan nan nan 5.797448 1.938472 58.528698 2.827016 -3.648097 -11.154526 5.324436 0.254055 -4.207821 -9.377315 4.806655 -4.399783 5.969460 -4.411721 -1.903963 -4.447031 -42.574307 -9.643620 -43.318563 -32.515182 1.402890 -3.625887 -18.459968 28.802698 3.274008 -0.482200 -11.069355 8.532599 38.956257 0.391495 41.174535 39.299896 -6.311703 1.651991 10.915542 35.293291 -2.566776 -8.545754 26.464092 
-34.816998 15.972147 64.209427 178.670329 0.816624 100.764811 17.128815 42.921014 -64.581616 -13.096015 27.907677 96.966220 13.568272 -17.128658 -35.466675 nan nan nan -6.187394 -39.894582 -63.725019 -1.747185 -27.528722 104.575028 -9.547370 17.153011 -36.817820 nan nan nan 5.884177 1.992219 59.457422 2.729097 -3.557298 -12.249015 5.434512 0.042119 -4.102290 -9.429932 4.620532 -3.817101 6.312808 -4.388161 -2.179872 -4.786681 -42.775752 -9.160472 -43.149115 -32.368449 0.984276 -3.426383 -18.479321 28.920630 3.350818 -0.363419 -10.918548 8.580013 38.896874 0.589233 41.104295 39.240217 -6.780553 1.768923 10.947128 35.557740 -2.918574 -8.239431 26.746333 
-34.907127 15.931543 63.465858 178.554173 0.852682 100.412419 17.468586 43.096887 -65.180790 -12.727498 27.937053 98.659542 13.412979 -17.126906 -35.712280 nan nan nan -6.395558 -40.106543 -64.233773 -2.093093 -27.236334 106.078252 -9.665906 17.201839 -37.211006 nan nan nan 5.821477 2.148302 60.066230 2.734307 -3.491931 -12.099722 5.500871 -0.009134 -4.178936 -9.481755 4.735420 -3.672484 6.453863 -4.394300 -2.435374 -4.839916 -43.182986 -8.982157 -42.524372 -32.255930 0.554264 -3.408328 -18.442133 28.675967 3.589509 -0.554226 -10.907848 8.568647 39.070374 0.436270 40.685298 39.087495 -7.188038 1.766768 10.971138 35.261163 -2.879826 -7.697422 26.907474 
-34.983719 15.875280 62.730587 178.435080 0.827269 99.988002 17.790834 43.243225 -65.677971 -12.518885 27.956852 100.237193 13.240199 -17.071717 -35.879645 nan nan nan -6.840243 -40.304066 -64.629647 -2.408481 -27.036836 107.618658 -9.650103 17.267911 -37.393250 nan nan nan 5.685082 2.270121 60.643448 2.776615 -3.447406 -11.790044 5.470308 -0.010788 -4.266113 -9.478874 4.948594 -3.653644 6.437404 -4.352326 -2.556296 -4.819267 -43.490688 -8.981064 -41.816666 -32.090456 0.475609 -3.647112 -18.457665 28.700518 4.210312 -0.599860 -11.178655 8.627616 39.288344 0.275684 40.247844 38.900088 -7.149839 1.801809 11.147713 35.274012 -3.168472 -7.616576 27.020944 
-35.051540 15.831624 61.993168 178.395329 0.813936 99.655308 17.968944 43.368841 -66.342487 -12.269785 27.921747 101.753114 13.205850 -17.062418 -36.143197 nan nan nan -7.304190 -40.561111 -65.048166 -2.709991 -26.914647 109.140476 -9.465385 17.558650 -37.513583 nan nan nan 5.662242 2.291407 61.326907 2.798159 -3.517504 -11.749801 5.417061 -0.063743 -4.456061 -9.426571 4.996073 -3.587753 6.440541 -4.295682 -2.603981 -4.798640 -43.576193 -9.041620 -41.455108 -31.811721 0.502326 -3.766468 -18.506092 29.055981 4.790362 -0.638750 -11.142109 8.629956 39.559936 0.370147 39.934214 38.772334 -7.175081 1.993891 11.437165 35.342819 -3.148390 -7.527017 26.550392 
-35.131958 15.813715 61.243717 178.412155 0.829320 99.375952 18.189923 43.451598 -67.026295 -11.852325 27.929772 103.271212 13.334380 -17.084933 -36.536499 nan nan nan -7.684674 -40.900483 -65.503501 -2.952745 -26.744067 110.598234 -9.269932 17.873886 -37.659639 nan nan nan 5.774829 2.316964 61.979188 2.817523 -3.593958 -11.876032 5.418882 -0.166107 -4.555470 -9.473594 4.972682 -3.437562 6.478818 -4.454091 -2.775094 -5.041843 -43.680539 -8.861365 -41.027250 -31.706447 0.142096 -3.837521 -18.270662 29.422950 4.891402 -0.851991 -10.460078 8.656771 39.664543 0.480162 39.636051 38.806105 -7.481334 2.273085 11.420308 35.357440 -3.867952 -7.115860 26.431245 
-35.227005 15.795799 60.481354 178.307605 0.740093 99.105414 18.474468 43.541191 -67.512879 -11.471087 28.067037 104.774860 13.357287 -17.140442 -36.941419 nan nan nan -8.022571 -41.153179 -66.163564 -3.137260 -26.443561 112.042275 -9.162340 17.950193 -37.819498 nan nan nan 5.739149 2.508271 62.453871 2.813591 -3.512684 -11.914806 5.454704 -0.287447 -4.560768 -9.570191 4.967076 -3.102569 6.573895 -4.694647 -3.113120 -5.498823 -44.058164 -8.405594 -40.341900 -31.721118 -0.385252 -3.782898 -17.835132 29.363615 4.966010 -1.077741 -9.950290 8.826627 39.719430 0.540973 39.165085 38.687230 -7.762043 2.334942 11.447681 35.633481 -4.638545 -6.811557 26.733718 
-35.320683 15.772964 59.739006 178.212731 0.609411 98.836564 18.638468 43.585537 -68.016255 -11.191818 28.171921 106.247777 13.221021 -17.237917 -37.216424 nan nan nan -8.368913 -41.425472 -66.813359 -3.380934 -26.117236 113.485416 -9.145275 18.044054 -38.035075 nan nan nan 5.654503 2.627186 63.107013 2.731748 -3.410584 -12.263237 5.479380 -0.431172 -4.557636 -9.640228 4.937228 -2.667774 6.709453 -4.712317 -3.356505 -5.957012 -44.298980 -7.993145 -39.813213 -31.683250 -0.743753 -3.667192 -17.615770 29.338589 4.514621 -1.177471 -9.795825 9.097197 39.812871 0.744141 38.729608 38.468391 -7.936910 2.319520 11.637579 35.984982 -4.677996 -6.690095 26.670706 
-35.412582 15.759850 59.013683 178.202425 0.612711 98.486586 18.802760 43.618362 -68.554305 -10.811370 28.074792 107.763182 13.128651 -17.353608 -37.536070 nan nan nan -8.764114 -41.750595 -67.143830 -3.722740 -25.844364 114.928503 -9.055399 18.417816 -38.310458 nan nan nan 5.637596 2.505881 64.025355 2.653795 -3.422968 -12.800307 5.422110 -0.411147 -4.678956 -9.612621 5.180746 -2.219829 6.776251 -4.787980 -3.341839 -6.230194 -44.273247 -7.671714 -39.462955 -31.571988 -1.049798 -3.730942 -17.673868 29.657068 3.824909 -1.559170 -9.489634 9.475915 39.887977 1.034767 38.519932 38.532063 -8.208545 2.344958 11.280355 36.198752 -5.310007 -6.454824 27.225819 
-35.516315 15.746586 58.285423 178.135729 0.604254 98.129811 19.070091 43.764045 -68.931568 -10.514273 28.103238 109.148306 13.335861 -17.250451 -38.042835 nan nan nan -9.191360 -42.009897 -67.451912 -3.846808 -25.662525 116.211026 -9.049882 18.607947 -38.704594 nan nan nan 5.531986 2.421519 64.810651 2.584930 -3.398378 -13.065091 5.382872 -0.311544 -4.868849 -9.630790 5.302424 -1.861476 6.883846 -4.793745 -3.436493 -6.242165 -44.209209 -7.650843 -39.391958 -31.427892 -1.165250 -4.001553 -17.661524 29.842624 4.303305 -1.307749 -9.646007 9.700101 39.962758 1.170650 38.409586 38.658140 -8.546904 2.420156 10.816427 36.068934 -6.072072 -6.680999 28.064133 
-35.610973 15.713234 57.556122 177.995219 0.534974 97.841593 19.349010 43.968941 -69.284605 -10.336510 28.282314 110.439066 13.591886 -17.024539 -38.623186 nan nan nan -9.593792 -42.159348 -67.878826 -3.873156 -25.495497 117.388270 -9.189232 18.630307 -39.262294 nan nan nan 5.341568 2.496973 65.340309 2.518748 -3.281375 -13.114059 5.418341 -0.288716 -4.958493 -9.715856 5.104814 -1.708538 6.993483 -4.636392 -3.702045 -6.012860 -44.164587 -7.856966 -39.611534 -31.237823 -0.931955 -4.151738 -17.662738 29.964447 6.025238 -0.670887 -10.519150 9.560119 40.073942 1.224089 38.293444 38.556836 -8.742348 2.491734 11.091735 35.817744 -5.765683 -6.798718 27.235076 
-35.714531 15.677527 56.828747 177.822605 0.542877 97.556054 19.667889 44.163210 -69.675459 -9.975879 28.348437 111.888466 13.462582 -17.124994 -39.087897 nan nan nan -10.051812 -42.238177 -68.153461 -4.138998 -25.257753 118.624273 -9.281216 19.029099 -39.877889 nan nan nan 5.245324 2.515525 65.770945 2.429111 -3.194020 -13.034322 5.369338 -0.242785 -5.152306 -9.609718 4.999792 -1.497501 7.020962 -4.712661 -3.860750 -6.060597 -44.310526 -7.694332 -39.415570 -30.941116 -1.048439 -4.003670 -17.834129 30.119084 4.564172 -1.094091 -11.298312 9.538071 40.323628 1.610469 37.904153 38.311152 -9.176279 2.467544 11.738139 35.654342 -4.333726 -6.455590 25.599890 
-35.839291 15.666578 56.107117 177.650592 0.605106 97.255629 20.044481 44.338336 -70.036703 -9.492480 28.297568 113.401508 13.292789 -17.461333 -39.566202 nan nan nan -10.570123 -42.315903 -68.294230 -4.567886 -24.941453 119.893537 -9.258849 19.769555 -40.511491 nan nan nan 5.250802 2.456239 66.165955 2.290369 -3.148118 -12.935493 5.302067 -0.171538 -5.400741 -9.530510 4.986982 -1.158909 7.090592 -4.901635 -3.978148 -6.627155 -44.540399 -7.276491 -38.895165 -30.773823 -1.818051 -3.711882 -17.953946 29.384192 -0.679729 -1.346793 -11.619741 9.792387 40.556974 1.949783 37.467325 38.148140 -9.913324 2.566092 11.918122 34.900815 -1.891192 -6.916899 24.668570 
